<svg id="Layer_1" data-name="Layer 1" xmlns="http://www.w3.org/2000/svg" viewBox="0 0 681.2 61.56"><defs><style>.cls-1{fill:#231f20;}</style></defs><title>logo</title><path class="cls-1" d="M49.86,37.84A23.68,23.68,0,0,1,47.7,48.42a18.94,18.94,0,0,1-5.89,7.06,25.46,25.46,0,0,1-8.73,4A43.43,43.43,0,0,1,22.32,60.7V75H3.15V15H22.32a44.4,44.4,0,0,1,10.76,1.26,25.65,25.65,0,0,1,8.73,4,19,19,0,0,1,5.89,7.07A23.63,23.63,0,0,1,49.86,37.84ZM22.32,44.5h.81c2.52,0,4.33-.58,5.45-1.75a6.88,6.88,0,0,0,1.66-4.91,6.89,6.89,0,0,0-1.66-4.9c-1.12-1.17-2.93-1.76-5.45-1.76h-.81Z" transform="translate(-3.15 -14.98)"/><path class="cls-1" d="M54.36,15h20V59.26H90.9V75H54.36Z" transform="translate(-3.15 -14.98)"/><path class="cls-1" d="M94.05,15h35.37V30.73h-16.2v6.66h15.93V52.33H113.22v6.93h16.83V75h-36Z" transform="translate(-3.15 -14.98)"/><path class="cls-1" d="M148.05,44,132.12,15h21l5.4,9.81,5.4-9.81H185L169,44,186.12,75h-21l-6.66-12-6.57,12H131Z" transform="translate(-3.15 -14.98)"/><path class="cls-1" d="M205.47,75V15h16.65a54.91,54.91,0,0,1,15.07,1.89,30.16,30.16,0,0,1,11.16,5.67A24.45,24.45,0,0,1,255.28,32a33.09,33.09,0,0,1,2.39,13,33.08,33.08,0,0,1-2.39,13,24.42,24.42,0,0,1-6.93,9.4,30.68,30.68,0,0,1-11.16,5.72A53.71,53.71,0,0,1,222.12,75Zm19.17-17.1q6.75,0,10.44-3.19T238.77,45q0-6.56-3.69-9.72c-2.46-2.09-5.94-3.15-10.44-3.15Z" transform="translate(-3.15 -14.98)"/><path class="cls-1" d="M287.19,76.54a34.19,34.19,0,0,1-10.26-1.44,20.85,20.85,0,0,1-7.83-4.32,18.8,18.8,0,0,1-5-7.29,27.87,27.87,0,0,1-1.75-10.35V15h19.17V52.33a7.67,7.67,0,0,0,1.3,4.82q1.31,1.66,4.37,1.66c2,0,3.49-.55,4.36-1.66a7.67,7.67,0,0,0,1.31-4.82V15h19.26V53.14a27.86,27.86,0,0,1-1.76,10.35,18.56,18.56,0,0,1-5,7.29,21.25,21.25,0,0,1-7.87,4.32A34.19,34.19,0,0,1,287.19,76.54Z" transform="translate(-3.15 -14.98)"/><path class="cls-1" d="M364.85,37.84a23.68,23.68,0,0,1-2.16,10.58,18.85,18.85,0,0,1-5.89,7.06,25.29,25.29,0,0,1-8.73,4,43.43,43.43,0,0,1-10.76,1.26V75H318.14V15h19.17a44.4,44.4,0,0,1,10.76,1.26,25.48,25.48,0,0,1,8.73,4,18.88,18.88,0,0,1,5.89,7.07A23.63,23.63,0,0,1,364.85,37.84ZM337.31,44.5h.81q3.78,0,5.45-1.75a6.84,6.84,0,0,0,1.66-4.91,6.84,6.84,0,0,0-1.66-4.9q-1.67-1.75-5.45-1.76h-.81Z" transform="translate(-3.15 -14.98)"/><path class="cls-1" d="M369.35,15h35.37V30.73h-16.2v6.66h15.93V52.33H388.52v6.93h16.83V75h-36Z" transform="translate(-3.15 -14.98)"/><path class="cls-1" d="M410.75,15h35.37V30.73h-16.2v6.66h15.93V52.33H429.92V75H410.75Z" transform="translate(-3.15 -14.98)"/><path class="cls-1" d="M451.07,15h20.34V75H451.07Z" transform="translate(-3.15 -14.98)"/><path class="cls-1" d="M477.71,15h15.75L510,38.11V15h18.81V75H513L496.52,52V75H477.71Z" transform="translate(-3.15 -14.98)"/><path class="cls-1" d="M535.13,75V15h16.65a54.91,54.91,0,0,1,15.07,1.89A30.16,30.16,0,0,1,578,22.54,24.45,24.45,0,0,1,584.94,32a33.09,33.09,0,0,1,2.39,13,33.08,33.08,0,0,1-2.39,13,24.42,24.42,0,0,1-6.93,9.4,30.68,30.68,0,0,1-11.16,5.72A53.71,53.71,0,0,1,551.78,75Zm19.17-17.1q6.75,0,10.44-3.19T568.43,45q0-6.56-3.69-9.72c-2.46-2.09-5.94-3.15-10.44-3.15Z" transform="translate(-3.15 -14.98)"/><path class="cls-1" d="M592.28,15h35.37V30.73h-16.2v6.66h15.93V52.33H611.45v6.93h16.83V75h-36Z" transform="translate(-3.15 -14.98)"/><path class="cls-1" d="M633.68,15h20.7A35.94,35.94,0,0,1,665,16.51a25,25,0,0,1,8.51,4.5,20.62,20.62,0,0,1,5.62,7.34,23.58,23.58,0,0,1,2,10A20.55,20.55,0,0,1,679.94,46a23,23,0,0,1-2.79,5.22,19.19,19.19,0,0,1-4,4L684.35,75h-22.5l-9-15.21V75H633.68ZM652.85,44.5h1a10.43,10.43,0,0,0,5.8-1.53Q662,41.46,662,37.84t-2.39-5.13a10.6,10.6,0,0,0-5.8-1.53h-1Z" transform="translate(-3.15 -14.98)"/></svg>